# xmcd CD database file
#
# Track frame offsets:
#	150
#	25060
#	43385
#	62860
#	78310
#	97810
#	114680
#	133835
#	144610
#	154660
#	170110
#	190685
#	207035
#	224035
#	238485
#	251830
#
# Disc length: 3508 seconds
#
# Revision: 4
# Processed by: cddbd v1.5.1PL0 Copyright (c) Steve Scherf et al.
# Submitted via: Feurio! 1.67 - http://www.feurio.com
#
DISCID=f50db210
DTITLE=Various Artist - The Kings Of Black Music
DYEAR=1990
DGENRE=blues
TTITLE0=Billy Ocean - On The Run
TTITLE1=James Brown - Bring It On
TTITLE2=James Brown - You Can´t Keep A Good Man Down
TTITLE3=James Brown - Tennessee Waltz
TTITLE4=Solomon Burke - Boo Hoo
TTITLE5=Solomon Burke - Hold On, I´m Coming
TTITLE6=Solomon Burke - Let Your Love Flow
TTITLE7=Solomon Burke - Down In The Valley
TTITLE8=George Mc Crea - It´s Been So Long
TTITLE9=Harold Melvin And The Blue Notes - If You Don´t Know Me By Now
TTITLE10=Wilson Pickett And Jackie Moore - Precious, Precious
TTITLE11=Wilson Pickett And Jackie Moore - Seconds
TTITLE12=Wilson Pickett - Peace Breaker
TTITLE13=Harold Melvin And The Blue Notes - Satisfaction Guaranteed
TTITLE14=Jimmy Ruffin - What Becomes Of The Broken Hearted
TTITLE15=Jerry Butler - Only The Strong Survive
EXTD=
EXTT0=
EXTT1=
EXTT2=
EXTT3=
EXTT4=
EXTT5=
EXTT6=
EXTT7=
EXTT8=
EXTT9=
EXTT10=
EXTT11=
EXTT12=
EXTT13=
EXTT14=
EXTT15=
PLAYORDER=
